<?xml version="1.0" encoding="UTF-8"?>
<svg xmlns="http://www.w3.org/2000/svg" xmlns:xlink="http://www.w3.org/1999/xlink" width="3247" height="2160" viewBox="0 0 3247 2160">
<path fill-rule="nonzero" fill="#1A0005" fill-opacity="1" d="M 427.804688 940.609375 C 438.925781 940.609375 452.515625 960.429688 452.515625 990.21875 L 452.515625 1065.019531 C 452.515625 1065.320312 452.332031 1065.570312 452.109375 1065.570312 L 427.804688 1065.578125 L 403.496094 1065.570312 C 403.273438 1065.570312 403.089844 1065.320312 403.089844 1065.019531 L 403.089844 990.21875 C 403.089844 960.429688 416.683594 940.609375 427.804688 940.609375 Z M 494.363281 940.609375 C 509.519531 940.609375 528.03125 960.429688 528.03125 990.21875 L 528.03125 1065.019531 C 528.03125 1065.320312 527.785156 1065.570312 527.480469 1065.570312 L 494.363281 1065.578125 L 461.25 1065.570312 C 460.945312 1065.570312 460.699219 1065.320312 460.699219 1065.019531 L 460.699219 990.21875 C 460.699219 960.429688 479.214844 940.609375 494.363281 940.609375 Z M 560.925781 940.609375 C 572.050781 940.609375 585.636719 960.429688 585.636719 990.21875 L 585.636719 1065.019531 C 585.636719 1065.320312 585.457031 1065.570312 585.234375 1065.570312 L 560.925781 1065.578125 L 536.621094 1065.570312 C 536.394531 1065.570312 536.214844 1065.320312 536.214844 1065.019531 L 536.214844 990.21875 C 536.214844 960.429688 549.808594 940.609375 560.925781 940.609375 Z M 2685.5 940.609375 C 2696.621094 940.609375 2710.210938 960.429688 2710.210938 990.21875 L 2710.210938 1065.019531 C 2710.210938 1065.320312 2710.03125 1065.570312 2709.808594 1065.570312 L 2685.5 1065.578125 L 2661.191406 1065.570312 C 2660.96875 1065.570312 2660.789062 1065.320312 2660.789062 1065.019531 L 2660.789062 990.21875 C 2660.789062 960.429688 2674.378906 940.609375 2685.5 940.609375 Z M 2752.058594 940.609375 C 2767.21875 940.609375 2785.71875 960.429688 2785.71875 990.21875 L 2785.71875 1065.019531 C 2785.71875 1065.320312 2785.480469 1065.570312 2785.179688 1065.570312 L 2752.058594 1065.578125 L 2718.949219 1065.570312 C 2718.640625 1065.570312 2718.390625 1065.320312 2718.390625 1065.019531 L 2718.390625 990.21875 C 2718.390625 960.429688 2736.910156 940.609375 2752.058594 940.609375 Z M 2818.621094 940.609375 C 2829.75 940.609375 2843.328125 960.429688 2843.328125 990.21875 L 2843.328125 1065.019531 C 2843.328125 1065.320312 2843.148438 1065.570312 2842.929688 1065.570312 L 2818.621094 1065.578125 L 2794.320312 1065.570312 C 2794.089844 1065.570312 2793.910156 1065.320312 2793.910156 1065.019531 L 2793.910156 990.21875 C 2793.910156 960.429688 2807.5 940.609375 2818.621094 940.609375 Z M 1278.988281 1123.648438 C 1291.191406 1123.648438 1306.429688 1139.730469 1306.429688 1164.304688 L 1306.429688 1226.339844 L 1278.988281 1226.347656 L 1251.53125 1226.339844 L 1251.53125 1164.304688 C 1251.53125 1139.730469 1266.789062 1123.648438 1278.988281 1123.648438 Z M 1450.140625 1123.648438 C 1462.351562 1123.648438 1477.589844 1139.730469 1477.589844 1164.304688 L 1477.589844 1226.339844 L 1450.140625 1226.347656 L 1422.691406 1226.339844 L 1422.691406 1164.304688 C 1422.691406 1139.730469 1437.949219 1123.648438 1450.140625 1123.648438 Z M 1621.300781 1123.648438 C 1633.5 1123.648438 1648.75 1139.730469 1648.75 1164.304688 L 1648.75 1226.339844 L 1621.300781 1226.347656 L 1593.851562 1226.339844 L 1593.851562 1164.304688 C 1593.851562 1139.730469 1609.089844 1123.648438 1621.300781 1123.648438 Z M 1792.449219 1123.648438 C 1804.640625 1123.648438 1819.890625 1139.730469 1819.890625 1164.304688 L 1819.890625 1226.339844 L 1792.449219 1226.347656 L 1764.988281 1226.339844 L 1764.988281 1164.304688 C 1764.988281 1139.730469 1780.230469 1123.648438 1792.449219 1123.648438 Z M 1963.589844 1123.648438 C 1975.789062 1123.648438 1991.039062 1139.730469 1991.039062 1164.304688 L 1991.039062 1226.339844 L 1963.589844 1226.347656 L 1936.140625 1226.339844 L 1936.140625 1164.304688 C 1936.140625 1139.730469 1951.398438 1123.648438 1963.589844 1123.648438 Z M 643.769531 1222.925781 C 650.570312 1222.925781 658.878906 1235.042969 658.878906 1253.257812 L 658.878906 1298.996094 C 658.878906 1299.179688 658.769531 1299.332031 658.632812 1299.332031 L 643.769531 1299.335938 L 628.90625 1299.332031 C 628.769531 1299.332031 628.660156 1299.179688 628.660156 1298.996094 L 628.660156 1253.257812 C 628.660156 1235.042969 636.96875 1222.925781 643.769531 1222.925781 Z M 684.46875 1222.925781 C 693.734375 1222.925781 705.054688 1235.042969 705.054688 1253.257812 L 705.054688 1298.996094 C 705.054688 1299.179688 704.902344 1299.332031 704.71875 1299.332031 L 684.46875 1299.335938 L 664.222656 1299.332031 C 664.035156 1299.332031 663.882812 1299.179688 663.882812 1298.996094 L 663.882812 1253.257812 C 663.882812 1235.042969 675.207031 1222.925781 684.46875 1222.925781 Z M 725.167969 1222.925781 C 731.972656 1222.925781 740.28125 1235.042969 740.28125 1253.257812 L 740.28125 1298.996094 C 740.28125 1299.179688 740.167969 1299.332031 740.03125 1299.332031 L 725.167969 1299.335938 L 710.304688 1299.332031 C 710.171875 1299.332031 710.058594 1299.179688 710.058594 1298.996094 L 710.058594 1253.257812 C 710.058594 1235.042969 718.371094 1222.925781 725.167969 1222.925781 Z M 2521.25 1222.925781 C 2528.058594 1222.925781 2536.359375 1235.042969 2536.359375 1253.257812 L 2536.359375 1298.996094 C 2536.359375 1299.179688 2536.25 1299.332031 2536.121094 1299.332031 L 2521.25 1299.335938 L 2506.390625 1299.332031 C 2506.25 1299.332031 2506.140625 1299.179688 2506.140625 1298.996094 L 2506.140625 1253.257812 C 2506.140625 1235.042969 2514.460938 1222.925781 2521.25 1222.925781 Z M 2561.960938 1222.925781 C 2571.21875 1222.925781 2582.539062 1235.042969 2582.539062 1253.257812 L 2582.539062 1298.996094 C 2582.539062 1299.179688 2582.390625 1299.332031 2582.199219 1299.332031 L 2561.960938 1299.335938 L 2541.710938 1299.332031 C 2541.519531 1299.332031 2541.371094 1299.179688 2541.371094 1298.996094 L 2541.371094 1253.257812 C 2541.371094 1235.042969 2552.699219 1222.925781 2561.960938 1222.925781 Z M 2602.660156 1222.925781 C 2609.460938 1222.925781 2617.769531 1235.042969 2617.769531 1253.257812 L 2617.769531 1298.996094 C 2617.769531 1299.179688 2617.660156 1299.332031 2617.519531 1299.332031 L 2602.660156 1299.335938 L 2587.789062 1299.332031 C 2587.660156 1299.332031 2587.550781 1299.179688 2587.550781 1298.996094 L 2587.550781 1253.257812 C 2587.550781 1235.042969 2595.859375 1222.925781 2602.660156 1222.925781 Z M 1623.21875 0 C 1529.039062 0 1452.609375 73.660156 1452.609375 164.5 C 1452.609375 249.699219 1520.089844 318.949219 1606.160156 327.339844 L 1606.160156 332.351562 L 1597.800781 398.710938 C 1585.910156 406.71875 1578.75 419.839844 1578.75 434.191406 C 1578.75 441.519531 1580.679688 448.671875 1584.25 454.980469 C 1567.679688 466.851562 1557.5 485.820312 1557.5 506.269531 C 1557.5 526.71875 1567.671875 545.679688 1584.25 557.550781 C 1580.679688 563.859375 1578.75 571 1578.75 578.339844 C 1578.75 578.410156 1578.761719 578.460938 1578.761719 578.53125 C 1475.660156 635.210938 1228.851562 792.570312 1228.851562 1000.25 L 1228.851562 1076.519531 L 1190.761719 1076.519531 L 1190.75 1076.53125 C 1181.488281 1076.519531 1173.988281 1084.03125 1173.988281 1093.28125 L 1173.988281 1256.699219 C 1173.988281 1265.957031 1181.5 1273.457031 1190.761719 1273.457031 L 1209.800781 1273.464844 L 1209.800781 1346.628906 L 1209.710938 1346.636719 C 1195.109375 1346.632812 1180.5 1346.628906 1165.898438 1346.628906 L 1165.898438 1346.636719 C 1143.308594 1263.785156 1045.710938 1202.015625 1001.898438 1177.933594 C 1001.898438 1177.898438 1001.910156 1177.867188 1001.910156 1177.835938 C 1001.910156 1174.300781 1000.980469 1170.855469 999.25 1167.804688 C 1007.238281 1162.085938 1012.140625 1152.941406 1012.140625 1143.078125 C 1012.140625 1133.21875 1007.238281 1124.078125 999.246094 1118.359375 C 1000.96875 1115.300781 1001.910156 1111.859375 1001.910156 1108.328125 C 1001.910156 1101.410156 998.449219 1095.089844 992.71875 1091.210938 L 985.691406 1035.5 C 985.359375 1032.859375 983.117188 1030.871094 980.457031 1030.871094 L 980.449219 1030.878906 C 977.789062 1030.871094 975.542969 1032.859375 975.210938 1035.5 L 968.183594 1091.210938 C 962.453125 1095.089844 958.996094 1101.410156 958.996094 1108.328125 C 958.996094 1111.859375 959.933594 1115.300781 961.660156 1118.359375 C 953.664062 1124.078125 948.765625 1133.21875 948.765625 1143.078125 C 948.765625 1152.941406 953.664062 1162.085938 961.65625 1167.804688 C 959.929688 1170.855469 958.996094 1174.300781 958.996094 1177.835938 C 958.996094 1177.867188 959 1177.898438 959 1177.933594 C 910.171875 1204.773438 794.515625 1278.433594 790.386719 1375.917969 L 790.429688 1375.921875 C 790.429688 1414.46875 790.429688 1453.019531 790.429688 1491.574219 L 738.871094 1491.578125 C 738.871094 1488.46875 738.871094 1485.367188 738.871094 1482.265625 L 738.019531 1482.265625 L 738.019531 1354.03125 L 764.78125 1328.210938 L 764.78125 1302.394531 L 743.03125 1302.402344 C 743.03125 1274.976562 743.03125 1247.546875 743.03125 1220.113281 L 743.054688 1220.121094 L 764.78125 1220.117188 L 764.78125 1194.296875 L 694.253906 1048.289062 L 694.230469 1048.300781 C 695.152344 1046.730469 695.679688 1044.921875 695.679688 1042.988281 C 695.679688 1037.960938 692.101562 1033.769531 687.269531 1032.570312 L 687.269531 1021.109375 C 701.414062 1019.730469 712.492188 1008.359375 712.492188 994.351562 C 712.492188 993.429688 712.300781 992.558594 712.203125 991.648438 C 710.816406 1002.308594 701.496094 1010.558594 690.070312 1010.558594 C 677.6875 1010.558594 667.660156 1000.890625 667.660156 988.949219 C 667.660156 977.929688 676.230469 968.949219 687.269531 967.609375 C 686.339844 967.511719 685.433594 967.328125 684.472656 967.328125 C 669 967.328125 656.445312 979.429688 656.445312 994.351562 C 656.445312 1008.351562 667.53125 1019.71875 681.667969 1021.109375 L 681.667969 1032.570312 C 676.832031 1033.78125 673.257812 1037.96875 673.257812 1042.988281 C 673.257812 1044.929688 673.789062 1046.75 674.722656 1048.320312 L 674.699219 1048.320312 L 604.15625 1194.296875 L 604.15625 1220.101562 L 625.925781 1220.105469 L 625.90625 1220.109375 C 625.90625 1247.535156 625.90625 1274.964844 625.90625 1302.398438 L 625.882812 1302.402344 L 604.15625 1302.410156 L 604.15625 1328.210938 L 630.929688 1354.03125 L 630.929688 1586.421875 L 582.386719 1586.429688 L 582.386719 1398.492188 L 583.335938 1398.496094 L 583.335938 1398.492188 C 583.335938 1387.238281 583.335938 1375.988281 583.335938 1364.734375 L 583.296875 1364.738281 L 581.941406 1364.738281 L 581.941406 1155.019531 L 625.707031 1112.800781 L 625.707031 1070.578125 L 590.136719 1070.601562 C 590.136719 1025.738281 590.136719 980.878906 590.136719 936.019531 L 590.175781 936.03125 L 625.707031 936.019531 L 625.707031 893.800781 L 510.363281 655.019531 L 510.324219 655.019531 C 511.835938 652.460938 512.699219 649.511719 512.699219 646.351562 C 512.699219 638.128906 506.847656 631.269531 498.945312 629.300781 L 498.945312 610.558594 C 522.078125 608.308594 540.191406 589.710938 540.191406 566.808594 C 540.191406 565.308594 539.882812 563.871094 539.71875 562.390625 C 537.453125 579.808594 522.210938 593.320312 503.527344 593.320312 C 483.277344 593.320312 466.875 577.488281 466.875 557.96875 C 466.875 539.960938 480.890625 525.261719 498.945312 523.070312 C 497.425781 522.910156 495.941406 522.621094 494.367188 522.621094 C 469.066406 522.621094 448.535156 542.410156 448.535156 566.808594 C 448.535156 589.699219 466.660156 608.300781 489.78125 610.558594 L 489.78125 629.300781 C 481.878906 631.28125 476.03125 638.140625 476.03125 646.351562 C 476.03125 649.53125 476.902344 652.5 478.425781 655.058594 L 478.390625 655.058594 L 363.023438 893.800781 L 363.023438 936 L 398.628906 936 L 398.589844 936.011719 C 398.589844 980.859375 398.589844 1025.71875 398.589844 1070.578125 L 398.554688 1070.589844 L 363.023438 1070.601562 L 363.023438 1112.800781 L 406.804688 1155.019531 L 406.804688 1690.144531 L 376.570312 1690.140625 L 376.570312 1690.144531 L 376.570312 1619.410156 L 376.609375 1619.414062 C 373.449219 1543.589844 283.496094 1486.296875 245.523438 1465.421875 C 245.523438 1465.394531 245.527344 1465.371094 245.527344 1465.347656 C 245.527344 1462.601562 244.800781 1459.921875 243.457031 1457.550781 C 249.667969 1453.101562 253.480469 1445.992188 253.480469 1438.328125 C 253.480469 1430.667969 249.667969 1423.554688 243.457031 1419.105469 C 244.796875 1416.730469 245.527344 1414.054688 245.527344 1411.3125 C 245.527344 1405.933594 242.835938 1401.015625 238.382812 1398.007812 L 232.917969 1354.691406 C 232.660156 1352.636719 230.917969 1351.097656 228.847656 1351.097656 L 228.84375 1351.105469 C 226.773438 1351.097656 225.03125 1352.636719 224.769531 1354.691406 L 219.304688 1398.007812 C 214.851562 1401.015625 212.164062 1405.933594 212.164062 1411.3125 C 212.164062 1414.054688 212.894531 1416.730469 214.234375 1419.105469 C 208.019531 1423.554688 204.210938 1430.667969 204.210938 1438.328125 C 204.210938 1445.992188 208.019531 1453.101562 214.230469 1457.550781 C 212.890625 1459.921875 212.164062 1462.601562 212.164062 1465.347656 C 212.164062 1465.371094 212.167969 1465.394531 212.167969 1465.421875 C 174.207031 1486.289062 84.296875 1543.554688 81.085938 1619.339844 L 81.121094 1619.34375 C 81.121094 1642.941406 81.121094 1666.539062 81.121094 1690.140625 L 81.121094 1690.144531 L 0 1690.140625 C 0 1846.664062 0 2003.1875 0 2159.710938 C 1082.140625 2159.707031 2164.289062 2159.703125 3246.429688 2159.699219 C 3246.429688 2003.183594 3246.429688 1846.667969 3246.429688 1690.152344 L 3165.308594 1690.15625 L 3165.308594 1619.410156 L 3165.339844 1619.414062 C 3162.179688 1543.589844 3072.230469 1486.296875 3034.25 1465.421875 C 3034.25 1465.394531 3034.25 1465.371094 3034.25 1465.347656 C 3034.25 1462.601562 3033.53125 1459.921875 3032.191406 1457.550781 C 3038.398438 1453.101562 3042.210938 1445.992188 3042.210938 1438.328125 C 3042.210938 1430.667969 3038.398438 1423.554688 3032.191406 1419.105469 C 3033.53125 1416.730469 3034.25 1414.054688 3034.25 1411.3125 C 3034.25 1405.933594 3031.570312 1401.015625 3027.109375 1398.007812 L 3021.648438 1354.691406 C 3021.390625 1352.636719 3019.640625 1351.097656 3017.578125 1351.097656 L 3017.570312 1351.105469 C 3015.5 1351.097656 3013.761719 1352.636719 3013.5 1354.691406 L 3008.039062 1398.007812 C 3003.578125 1401.015625 3000.890625 1405.933594 3000.890625 1411.3125 C 3000.890625 1414.054688 3001.628906 1416.730469 3002.96875 1419.105469 C 2996.75 1423.554688 2992.949219 1430.667969 2992.949219 1438.328125 C 2992.949219 1445.992188 2996.75 1453.101562 3002.960938 1457.550781 C 3001.621094 1459.921875 3000.890625 1462.601562 3000.890625 1465.347656 C 3000.890625 1465.371094 3000.898438 1465.394531 3000.898438 1465.421875 C 2962.941406 1486.289062 2873.03125 1543.554688 2869.820312 1619.339844 L 2869.851562 1619.34375 C 2869.851562 1642.945312 2869.851562 1666.546875 2869.851562 1690.148438 L 2869.851562 1690.15625 L 2840.078125 1690.148438 L 2840.078125 1690.15625 L 2840.078125 1398.492188 L 2841.03125 1398.496094 L 2841.03125 1398.492188 C 2841.03125 1387.238281 2841.03125 1375.988281 2841.03125 1364.734375 L 2841 1364.738281 L 2839.640625 1364.738281 L 2839.640625 1155.019531 L 2883.398438 1112.800781 L 2883.398438 1070.578125 L 2847.828125 1070.601562 C 2847.828125 1025.738281 2847.828125 980.878906 2847.828125 936.019531 L 2847.871094 936.03125 L 2883.398438 936.019531 L 2883.398438 893.800781 L 2768.058594 655.019531 L 2768.019531 655.019531 C 2769.53125 652.460938 2770.390625 649.511719 2770.390625 646.351562 C 2770.390625 638.128906 2764.539062 631.269531 2756.640625 629.300781 L 2756.640625 610.558594 C 2779.769531 608.308594 2797.890625 589.710938 2797.890625 566.808594 C 2797.890625 565.308594 2797.578125 563.871094 2797.410156 562.390625 C 2795.148438 579.808594 2779.898438 593.320312 2761.21875 593.320312 C 2740.96875 593.320312 2724.570312 577.488281 2724.570312 557.96875 C 2724.570312 539.960938 2738.589844 525.261719 2756.640625 523.070312 C 2755.128906 522.910156 2753.640625 522.621094 2752.070312 522.621094 C 2726.761719 522.621094 2706.230469 542.410156 2706.230469 566.808594 C 2706.230469 589.699219 2724.359375 608.300781 2747.480469 610.558594 L 2747.480469 629.300781 C 2739.570312 631.28125 2733.730469 638.140625 2733.730469 646.351562 C 2733.730469 649.53125 2734.601562 652.5 2736.121094 655.058594 L 2736.089844 655.070312 L 2620.71875 893.800781 L 2620.71875 936 L 2656.320312 936 L 2656.289062 936.011719 C 2656.289062 980.859375 2656.289062 1025.71875 2656.289062 1070.578125 L 2656.25 1070.589844 L 2620.71875 1070.601562 L 2620.71875 1112.800781 L 2664.5 1155.019531 L 2664.5 1586.417969 L 2615.78125 1586.425781 L 2615.78125 1502.90625 L 2616.359375 1502.910156 L 2616.359375 1502.90625 C 2616.359375 1496.023438 2616.359375 1489.144531 2616.359375 1482.265625 L 2615.511719 1482.265625 L 2615.511719 1354.03125 L 2642.269531 1328.210938 L 2642.269531 1302.394531 L 2620.519531 1302.402344 C 2620.519531 1274.976562 2620.519531 1247.546875 2620.519531 1220.113281 L 2620.539062 1220.121094 L 2642.269531 1220.117188 L 2642.269531 1194.296875 L 2571.738281 1048.289062 L 2571.71875 1048.300781 C 2572.640625 1046.730469 2573.171875 1044.921875 2573.171875 1042.988281 C 2573.171875 1037.960938 2569.589844 1033.769531 2564.761719 1032.570312 L 2564.761719 1021.109375 C 2578.898438 1019.730469 2589.980469 1008.359375 2589.980469 994.351562 C 2589.980469 993.429688 2589.789062 992.558594 2589.691406 991.648438 C 2588.308594 1002.308594 2578.980469 1010.558594 2567.558594 1010.558594 C 2555.179688 1010.558594 2545.140625 1000.890625 2545.140625 988.949219 C 2545.140625 977.929688 2553.71875 968.949219 2564.761719 967.609375 C 2563.828125 967.511719 2562.921875 967.328125 2561.960938 967.328125 C 2546.480469 967.328125 2533.929688 979.429688 2533.929688 994.351562 C 2533.929688 1008.351562 2545.019531 1019.71875 2559.148438 1021.109375 L 2559.148438 1032.570312 C 2554.320312 1033.78125 2550.75 1037.96875 2550.75 1042.988281 C 2550.75 1044.929688 2551.28125 1046.75 2552.210938 1048.320312 L 2552.191406 1048.320312 L 2481.640625 1194.296875 L 2481.640625 1220.101562 L 2503.410156 1220.105469 L 2503.390625 1220.109375 C 2503.390625 1247.535156 2503.390625 1274.964844 2503.390625 1302.398438 L 2503.371094 1302.402344 L 2481.640625 1302.410156 L 2481.640625 1328.210938 L 2508.421875 1354.03125 L 2508.421875 1491.566406 L 2508.320312 1491.574219 C 2490.878906 1491.570312 2473.429688 1491.566406 2455.988281 1491.566406 L 2455.988281 1491.574219 L 2455.988281 1376.007812 L 2456.039062 1376.011719 C 2451.96875 1278.480469 2336.269531 1204.78125 2287.421875 1177.933594 C 2287.421875 1177.898438 2287.429688 1177.867188 2287.429688 1177.835938 C 2287.429688 1174.300781 2286.488281 1170.855469 2284.769531 1167.804688 C 2292.75 1162.085938 2297.660156 1152.941406 2297.660156 1143.078125 C 2297.660156 1133.21875 2292.75 1124.078125 2284.769531 1118.359375 C 2286.488281 1115.300781 2287.429688 1111.859375 2287.429688 1108.328125 C 2287.429688 1101.410156 2283.96875 1095.089844 2278.238281 1091.210938 L 2271.210938 1035.5 C 2270.878906 1032.859375 2268.628906 1030.871094 2265.96875 1030.871094 L 2265.96875 1030.878906 C 2263.308594 1030.871094 2261.058594 1032.859375 2260.730469 1035.5 L 2253.699219 1091.210938 C 2247.96875 1095.089844 2244.519531 1101.410156 2244.519531 1108.328125 C 2244.519531 1111.859375 2245.449219 1115.300781 2247.179688 1118.359375 C 2239.179688 1124.078125 2234.28125 1133.21875 2234.28125 1143.078125 C 2234.28125 1152.941406 2239.179688 1162.085938 2247.171875 1167.804688 C 2245.449219 1170.855469 2244.519531 1174.300781 2244.519531 1177.835938 C 2244.519531 1177.867188 2244.519531 1177.898438 2244.519531 1177.933594 C 2200.710938 1202.015625 2103.109375 1263.78125 2080.519531 1346.628906 L 2080.441406 1346.632812 C 2065.828125 1346.628906 2051.230469 1346.628906 2036.628906 1346.628906 L 2036.628906 1346.632812 L 2036.628906 1273.457031 L 2055.660156 1273.464844 C 2064.929688 1273.457031 2072.429688 1265.957031 2072.429688 1256.699219 L 2072.429688 1093.28125 C 2072.421875 1084.019531 2064.910156 1076.519531 2055.648438 1076.519531 L 2017.578125 1076.519531 L 2017.578125 1000.25 C 2017.578125 792.570312 1770.78125 635.21875 1667.671875 578.539062 C 1667.671875 578.46875 1667.679688 578.410156 1667.679688 578.351562 C 1667.679688 571.019531 1665.75 563.871094 1662.171875 557.550781 C 1678.75 545.679688 1688.898438 526.71875 1688.898438 506.28125 C 1688.898438 485.828125 1678.730469 466.859375 1662.160156 455 C 1665.738281 448.679688 1667.679688 441.53125 1667.679688 434.199219 C 1667.679688 419.859375 1660.519531 406.75 1648.640625 398.710938 L 1640.269531 332.351562 L 1640.269531 327.339844 C 1726.371094 318.988281 1793.808594 249.730469 1793.808594 164.488281 C 1793.808594 158.898438 1792.660156 153.539062 1792.03125 148.039062 C 1783.609375 212.890625 1726.859375 263.191406 1657.308594 263.191406 C 1581.941406 263.191406 1520.878906 204.269531 1520.878906 131.589844 C 1520.878906 64.550781 1573.058594 9.839844 1640.269531 1.679688 C 1634.609375 1.089844 1629.089844 0 1623.230469 0 Z M 1623.21875 0 "/>
</svg>
